<?xml version="1.0" encoding="utf-8"?>
<!-- Generator: Adobe Illustrator 18.0.0, SVG Export Plug-In . SVG Version: 6.00 Build 0)  -->
<!DOCTYPE svg PUBLIC "-//W3C//DTD SVG 1.1//EN" "http://www.w3.org/Graphics/SVG/1.1/DTD/svg11.dtd">
<svg version="1.1" id="Lag_1" xmlns="http://www.w3.org/2000/svg" xmlns:xlink="http://www.w3.org/1999/xlink" x="0px" y="0px"
	 viewBox="0 0 60 60" enable-background="new 0 0 60 60" xml:space="preserve">
<path fill="#878787" d="M25,42.7L25,42.7H35c0.8,0,1.4,0.6,1.4,1.4v0v2.6h21.3c1.3,0,2.3,1,2.3,2.3c0,1.3-1,2.3-2.3,2.3H36.4V54
	c0,0.8-0.6,1.4-1.4,1.4h0H25c-0.8,0-1.4-0.6-1.4-1.4v0v-2.6H2.3c-1.3,0-2.3-1-2.3-2.3c0-1.3,1-2.3,2.3-2.3h21.3v-2.7
	C23.6,43.4,24.3,42.7,25,42.7L25,42.7z M57.7,8.6L57.7,8.6c1.3,0,2.3,1,2.3,2.3c0,1.3-1,2.3-2.3,2.3H49v2.6v0c0,0.8-0.6,1.4-1.4,1.4
	h-9.9h0c-0.8,0-1.4-0.6-1.4-1.4v-2.7h-34c-1.3,0-2.3-1-2.3-2.3c0-1.3,1-2.3,2.3-2.3h34V6v0c0-0.8,0.6-1.4,1.4-1.4h9.9h0
	C48.4,4.6,49,5.2,49,6v2.6H57.7L57.7,8.6z M2.3,32.3L2.3,32.3C1,32.3,0,31.3,0,30c0-1.3,1-2.3,2.3-2.3H11V25c0-0.8,0.6-1.4,1.4-1.4
	h0h9.9c0.8,0,1.4,0.6,1.4,1.4v0v2.6h34c1.3,0,2.3,1,2.3,2.3c0,1.3-1,2.3-2.3,2.3h-34V35c0,0.8-0.6,1.4-1.4,1.4h0h-9.9
	c-0.8,0-1.4-0.6-1.4-1.4v0v-2.6H2.3L2.3,32.3z M46.3,7.3L46.3,7.3h-7.2v7.2h7.2V7.3L46.3,7.3z M20.9,26.4L20.9,26.4h-7.2v7.2h7.2
	V26.4L20.9,26.4z M33.6,45.5L33.6,45.5h-7.1v7.2h7.1V45.5L33.6,45.5z"/>
</svg>
