<?xml version="1.0" encoding="utf-8"?>
<!-- Generator: Adobe Illustrator 18.0.0, SVG Export Plug-In . SVG Version: 6.00 Build 0)  -->
<!DOCTYPE svg PUBLIC "-//W3C//DTD SVG 1.1//EN" "http://www.w3.org/Graphics/SVG/1.1/DTD/svg11.dtd">
<svg version="1.1" id="Lag_1" xmlns="http://www.w3.org/2000/svg" xmlns:xlink="http://www.w3.org/1999/xlink" x="0px" y="0px"
	 viewBox="0 0 50 50" enable-background="new 0 0 50 50" xml:space="preserve">
<path fill="#868686" d="M39.6,1.8L39.6,1.8L25,16.4L10.4,1.8C8-0.6,4.2-0.6,1.8,1.8s-2.4,6.2,0,8.6L16.4,25L1.8,39.6
	c-2.4,2.4-2.4,6.2,0,8.6c2.4,2.4,6.2,2.4,8.6,0L25,33.6l14.6,14.6c2.4,2.4,6.2,2.4,8.6,0c2.4-2.4,2.4-6.2,0-8.6L33.6,25l14.6-14.6
	c2.4-2.4,2.4-6.2,0-8.6C45.8-0.6,42-0.6,39.6,1.8L39.6,1.8z"/>
</svg>
