<?xml version="1.0" encoding="utf-8"?>
<!-- Generator: Adobe Illustrator 18.0.0, SVG Export Plug-In . SVG Version: 6.00 Build 0)  -->
<!DOCTYPE svg PUBLIC "-//W3C//DTD SVG 1.1//EN" "http://www.w3.org/Graphics/SVG/1.1/DTD/svg11.dtd">
<svg version="1.1" id="Lag_1" xmlns="http://www.w3.org/2000/svg" xmlns:xlink="http://www.w3.org/1999/xlink" x="0px" y="0px"
	 viewBox="0 0 60 60" enable-background="new 0 0 60 60" xml:space="preserve">
<path fill="#878787" d="M48,46.4L48,46.4c2.1,0,3.9-0.8,5.2-2.2v0c1.3-1.3,2.2-3.2,2.2-5.2c0-1.8-0.7-3.5-1.7-4.8
	c-1.1-1.3-2.6-2.2-4.4-2.5c-1.1-0.2-1.9-1.2-1.9-2.3l0,0v0c0-4.4-1.8-8.4-4.7-11.2c-2.9-2.9-6.9-4.7-11.2-4.7c-3.2,0-6.2,1-8.7,2.6
	c-2.6,1.7-4.6,4.1-5.9,7c-0.4,0.9-1.2,1.4-2.1,1.4c-2.8,0.2-5.4,1.5-7.2,3.4c-1.9,2-3,4.6-3,7.5c0,3,1.2,5.8,3.2,7.7v0v0
	c2,2,4.7,3.2,7.7,3.2H48L48,46.4z M15.9,34.5L15.9,34.5c-0.5-0.5-0.5-1.4,0-2c0.5-0.5,1.4-0.5,2,0l2.7,2.7v-8c0-0.8,0.6-1.4,1.4-1.4
	c0.8,0,1.4,0.6,1.4,1.4v8l2.7-2.7c0.5-0.5,1.4-0.5,1.9,0c0.5,0.5,0.5,1.4,0,2L23,39.6v0l-0.1,0v0c0,0-0.1,0.1-0.2,0.1l-0.1,0l0,0
	C22.5,40,22.2,40,22,40c-0.2,0-0.5-0.1-0.7-0.2v0l-0.1,0c0,0-0.1-0.1-0.1-0.1l0,0l0,0l0,0L15.9,34.5L15.9,34.5z M32,33.4L32,33.4
	c-0.5,0.5-1.4,0.5-2,0c-0.5-0.5-0.5-1.4,0-2l5.1-5.1l0,0l0,0v0c0,0,0.1-0.1,0.2-0.1l0.1-0.1v0c0.2-0.1,0.4-0.2,0.7-0.2
	c0.2,0,0.5,0.1,0.7,0.2l0,0l0.1,0.1c0.1,0,0.1,0.1,0.2,0.1v0l0,0l0,0l5.1,5.1c0.5,0.5,0.5,1.4,0,2c-0.5,0.5-1.4,0.5-2,0l-2.7-2.7v8
	c0,0.8-0.6,1.4-1.4,1.4c-0.8,0-1.4-0.6-1.4-1.4v-8L32,33.4L32,33.4z M56.5,47.5L56.5,47.5c-2.2,2.2-5.1,3.5-8.4,3.5H48H15.5
	c-4.3,0-8.2-1.7-11-4.5v0C1.7,43.7,0,39.8,0,35.5c0-4.1,1.6-7.9,4.2-10.6c2.3-2.5,5.5-4.2,9-4.7c1.6-3.2,4-5.9,7-7.8
	C23.4,10.2,27.3,9,31.5,9c5.7,0,10.8,2.3,14.5,6c3.3,3.3,5.5,7.8,5.9,12.7c2.1,0.7,3.9,2,5.3,3.6c1.8,2.1,2.8,4.8,2.8,7.7
	C60,42.3,58.6,45.3,56.5,47.5L56.5,47.5L56.5,47.5L56.5,47.5z"/>
</svg>
