<?xml version="1.0" encoding="utf-8"?>
<!-- Generator: Adobe Illustrator 18.0.0, SVG Export Plug-In . SVG Version: 6.00 Build 0)  -->
<!DOCTYPE svg PUBLIC "-//W3C//DTD SVG 1.1//EN" "http://www.w3.org/Graphics/SVG/1.1/DTD/svg11.dtd">
<svg version="1.1" id="Lag_1" xmlns="http://www.w3.org/2000/svg" xmlns:xlink="http://www.w3.org/1999/xlink" x="0px" y="0px"
	 viewBox="0 0 60 60" enable-background="new 0 0 60 60" xml:space="preserve">
<path fill="#878787" d="M30,25.1c2.7,0,4.9,2.2,4.9,4.9c0,1.3-0.5,2.6-1.4,3.4h0c-0.9,0.9-2.1,1.4-3.4,1.4c-2.7,0-4.9-2.2-4.9-4.9
	c0-1.3,0.5-2.5,1.4-3.4h0C27.4,25.7,28.7,25.1,30,25.1L30,25.1z M16.5,13.6l21.4,7c0.7,0.2,1.3,0.8,1.5,1.5l7,21.4
	c0.4,1.2-0.3,2.5-1.5,2.9c-0.5,0.2-1,0.2-1.4,0l-21.4-7c-0.7-0.2-1.3-0.8-1.5-1.5l-7-21.4c-0.4-1.2,0.3-2.5,1.5-2.9
	C15.6,13.5,16.1,13.5,16.5,13.6L16.5,13.6z M35.4,24.6l-16-5.2l5.2,16l16,5.2L35.4,24.6L35.4,24.6z M30,0c16.5,0,30,13.5,30,30
	c0,16.5-13.5,30-30,30C13.6,60,0,46.5,0,30.1V30v-0.1C0,13.4,13.5,0,30,0L30,0z M32.3,4.7v3.7c0,1.3-1,2.3-2.3,2.3
	c-1.3,0-2.3-1-2.3-2.3V4.7c-12.1,1.1-21.9,10.8-23,23h3.7c1.3,0,2.3,1,2.3,2.3c0,1.3-1,2.3-2.3,2.3H4.7c1.1,12.1,10.9,21.9,23,23
	v-3.7c0-1.3,1-2.3,2.3-2.3c1.3,0,2.3,1,2.3,2.3v3.7c12.2-1.1,21.9-10.8,23-23h-3.7c-1.3,0-2.3-1-2.3-2.3c0-1.3,1-2.3,2.3-2.3h3.7
	C54.2,15.5,44.5,5.8,32.3,4.7L32.3,4.7z M31.5,28.5c-0.4-0.4-0.9-0.6-1.5-0.6c-0.6,0-1.1,0.2-1.5,0.6h0c-0.4,0.4-0.6,0.9-0.6,1.5
	c0,1.2,0.9,2.1,2.1,2.1c0.6,0,1.1-0.2,1.5-0.6h0c0.4-0.4,0.6-0.9,0.6-1.5C32.1,29.4,31.9,28.9,31.5,28.5L31.5,28.5L31.5,28.5z"/>
</svg>
