<?xml version="1.0" encoding="utf-8"?>
<!-- Generator: Adobe Illustrator 18.0.0, SVG Export Plug-In . SVG Version: 6.00 Build 0)  -->
<!DOCTYPE svg PUBLIC "-//W3C//DTD SVG 1.1//EN" "http://www.w3.org/Graphics/SVG/1.1/DTD/svg11.dtd">
<svg version="1.1" id="Lag_1" xmlns="http://www.w3.org/2000/svg" xmlns:xlink="http://www.w3.org/1999/xlink" x="0px" y="0px"
	 viewBox="0 0 60 60" enable-background="new 0 0 60 60" xml:space="preserve">
<path fill="#878787" d="M52.5,30.9c1.7-2.2,2.8-5,2.8-8.1c0-7.3-6-13.2-13.2-13.2c-3,0-5.8,1-8,2.7c-0.5,0.4-1,0.9-1.5,1.4
	c-0.7-1.5-1.7-2.8-2.8-4C27.1,7,23.5,5.4,19.5,5.4c-4,0-7.6,1.6-10.2,4.2c-2.6,2.6-4.2,6.2-4.2,10.2c0,3.4,1.2,6.5,3.2,9
	C4,32.8,0,36.8,0,43.7v4.8c0,1.3,1,2.3,2.3,2.3h5.2v1.5c0,1.3,1,2.3,2.3,2.3v0h41c1.3,0,2.3-1,2.3-2.3v-0.2v-1h4.6
	c1.3,0,2.3-1,2.3-2.3v-4.3C60,38.1,56.5,34.8,52.5,30.9L52.5,30.9z M36.8,15.9L36.8,15.9c1.4-1.1,3.3-1.8,5.2-1.8
	c4.7,0,8.6,3.9,8.6,8.6c0,2.4-1,4.5-2.5,6.1c-1.4,1.4-3.2,2.3-5.2,2.5c0.2-0.9,0.3-1.8,0.3-2.7c0-5.1-3.5-9.5-8.3-10.7
	C35.4,17.1,36.1,16.4,36.8,15.9L36.8,15.9z M32.2,22.1L32.2,22.1c3.6,0,6.5,2.9,6.5,6.5c0,1.8-0.7,3.4-1.9,4.6
	c-1.2,1.2-2.8,1.9-4.6,1.9c-3.5,0-6.5-2.8-6.5-6.5C25.7,25.1,28.6,22.1,32.2,22.1L32.2,22.1z M12.6,12.8L12.6,12.8
	c1.8-1.8,4.2-2.9,6.9-2.9s5.1,1.1,6.9,2.9c1.4,1.4,2.3,3.1,2.7,5.1c-4.7,1.4-8,5.7-8,10.7c0,0.2,0,0.5,0,0.7c-0.5,0.1-1,0.1-1.6,0.1
	c-2.7,0-5.2-1.1-6.9-2.9c-1.8-1.8-2.8-4.2-2.8-6.9C9.8,17,10.9,14.6,12.6,12.8L12.6,12.8z M12.2,50L12.2,50v-1.4v0v0V42
	c0-0.8-0.6-1.4-1.4-1.4c-0.8,0-1.4,0.6-1.4,1.4v4.2H4.6v-2.4c0-5,3.4-8.3,7-11.8l0.2-0.2c3.1,2,6.8,2.7,10.4,2.1l0.3-0.1
	c0.2,0.4,0.5,0.9,0.8,1.3c-3,3-5.8,5.9-5.8,11v3.5c0,0.2,0,0.3,0,0.5H12.2L12.2,50z M42.4,47.2L42.4,47.2h-2.7v-2.4
	c0-0.8-0.6-1.4-1.4-1.4c-0.8,0-1.4,0.6-1.4,1.4V50h-9.5v-5.2c0-0.8-0.6-1.4-1.4-1.4c-0.8,0-1.4,0.6-1.4,1.4v2.4h-2.7v-1.2
	c0-3.3,2.2-5.5,4.7-7.9c0.5,0.3,0.9,0.5,1.4,0.7l0,0l0,0c1.3,0.5,2.7,0.8,4.1,0.8c2,0,3.9-0.5,5.6-1.5c2.5,2.4,4.7,4.5,4.7,7.9V47.2
	L42.4,47.2z M55.4,46.5L55.4,46.5h-4.1v-3.6c0-0.8-0.6-1.4-1.4-1.4c-0.8,0-1.4,0.6-1.4,1.4V50H47c0-0.2,0.1-0.3,0.1-0.5v-3.5
	c0-4.6-2.2-7.3-4.9-10.1c2.5,0,4.9-0.7,7-2l0.2,0.2v0v0c3.3,3.2,6.1,5.9,6.1,10.4V46.5L55.4,46.5z"/>
</svg>
