<?xml version="1.0" encoding="utf-8"?>
<!-- Generator: Adobe Illustrator 18.0.0, SVG Export Plug-In . SVG Version: 6.00 Build 0)  -->
<!DOCTYPE svg PUBLIC "-//W3C//DTD SVG 1.1//EN" "http://www.w3.org/Graphics/SVG/1.1/DTD/svg11.dtd">
<svg version="1.1" id="Lag_1" xmlns="http://www.w3.org/2000/svg" xmlns:xlink="http://www.w3.org/1999/xlink" x="0px" y="0px"
	 viewBox="0 0 50 50" enable-background="new 0 0 50 50" xml:space="preserve">
<path fill="#F1F1F1" d="M10.1,34.4c3,0,5.6,5.6,5.7,7.2c0.5,0.3,0.8,0.5,0.8,0.9l0,0l0,0l0,0l0,0c0,0.6-0.8,1.1-2.1,1.4
	c-0.9,0.2-2,0.4-3.3,0.4c0-0.3,0-0.6,0-0.9c1.2-0.1,2.3-0.2,3.1-0.4c0.9-0.2,1.4-0.4,1.4-0.5l0,0l0,0l0,0l0,0c0-0.2-0.5-0.4-1.4-0.5
	c-1-0.3-2.5-0.4-4.1-0.4l0,0l0,0l0,0l0,0c-1.6,0-3,0.2-4.1,0.4c-0.9,0.2-1.4,0.4-1.4,0.5l0,0l0,0l0,0l0,0c0,0.2,0.5,0.4,1.4,0.5
	c0.7,0.2,1.4,0.3,2.4,0.4c-0.1,0.3-0.2,0.6-0.2,0.9c-0.9-0.1-1.7-0.2-2.4-0.4c-1.3-0.3-2.1-0.8-2.1-1.4l0,0l0,0l0,0l0,0
	c0-0.4,0.3-0.7,0.8-0.9C4.5,40,7,34.4,10.1,34.4L10.1,34.4z M21.2,24.2c2.2,0,4.4,0,6.6,0c-2.6,9.7,0.7,18.2,7.7,25.4
	c2.3-2.5,3.4-5.4,2.5-8.7c0.8,0,1.5,0,2.3,0c1.3,3,1.4,6.1-0.9,9.1h-3.6l0,0h-0.1h-0.1l0,0h0h-0.1h-0.1l0,0h-0.1h-0.1l0,0l0,0h-0.1
	h0H23.5C17.1,41.4,17.6,32.7,21.2,24.2L21.2,24.2z M24.4,0C14.6,0,6.6,17.9,6.3,23.3c-1.5,0.9-2.4,1.8-2.4,2.9l0,0l0,0l0,0l0,0
	c0,2,2.5,3.5,6.7,4.3c2.1,0.5,4.7,0.9,7.6,1c0.2-0.9,0.4-1.9,0.6-2.7c-3-0.2-5.5-0.6-7.6-1c-2.8-0.6-4.5-1.2-4.5-1.7l0,0l0,0l0,0
	l0,0c0-0.4,1.8-1,4.5-1.7c3.4-0.8,8-1.2,13.3-1.2l0,0l0,0l0,0l0,0c5.2,0,9.9,0.4,13.3,1.2c2.8,0.6,4.5,1.2,4.5,1.7l0,0l0,0l0,0l0,0
	c0,0.4-1.8,1-4.5,1.7c-2.7,0.6-6.2,1-10.2,1.2c0,1-0.1,1.9,0,2.8c4.1-0.2,7.9-0.6,10.8-1.2c4.1-0.9,6.7-2.5,6.7-4.4l0,0l0,0l0,0l0,0
	c0-1.1-0.9-2.1-2.4-2.9C42.4,17.9,34.3,0,24.4,0L24.4,0z M39.1,32.2c-3.5,0-6.4,6.4-6.4,8.2c-0.5,0.3-0.9,0.6-0.9,1l0,0l0,0l0,0l0,0
	c0,0.7,0.9,1.2,2.4,1.5c1,0.3,2.4,0.4,3.8,0.4c0-0.4,0-0.7,0-1c-1.4-0.1-2.6-0.2-3.5-0.4c-1-0.3-1.6-0.4-1.6-0.6l0,0l0,0l0,0l0,0
	c0-0.2,0.6-0.4,1.6-0.6c1.2-0.3,2.9-0.4,4.6-0.4l0,0l0,0l0,0l0,0c1.9,0,3.5,0.2,4.6,0.4c1,0.3,1.6,0.4,1.6,0.6l0,0l0,0l0,0l0,0
	c0,0.2-0.6,0.4-1.6,0.6C43,42.1,42,42.2,41,42.3c0.1,0.4,0.2,0.7,0.3,0.9c1-0.1,2-0.2,2.7-0.4c1.4-0.4,2.4-0.9,2.4-1.5l0,0l0,0l0,0
	l0,0c0-0.4-0.4-0.8-0.9-1C45.5,38.6,42.6,32.2,39.1,32.2L39.1,32.2z M9,42c-1.1,2.6-1.3,5.4,0.8,7.9c1.1,0,2.6,0,3.8,0
	c-2.2-2.3-3.3-4.9-2.5-7.9C10.4,42,9.7,42,9,42z"/>
</svg>
