<?xml version="1.0" encoding="utf-8"?>
<!-- Generator: Adobe Illustrator 18.0.0, SVG Export Plug-In . SVG Version: 6.00 Build 0)  -->
<!DOCTYPE svg PUBLIC "-//W3C//DTD SVG 1.1//EN" "http://www.w3.org/Graphics/SVG/1.1/DTD/svg11.dtd">
<svg version="1.1" id="Lag_1" xmlns="http://www.w3.org/2000/svg" xmlns:xlink="http://www.w3.org/1999/xlink" x="0px" y="0px"
	 viewBox="0 0 60 60" enable-background="new 0 0 60 60" xml:space="preserve">
<path fill="#878787" d="M30,0c6.2,0,12.2,1.8,17.3,5c5,3.2,9.1,7.8,11.4,13.3c0.8,1.8,1.1,3.7,0.9,5.6c-0.2,1.9-0.8,3.7-1.9,5.4
	c-1.1,1.7-2.5,3-4.2,3.9c-1.7,0.9-3.5,1.4-5.5,1.4h-6.5c0.2,1.1,0.4,2.1,0.5,3.3c0.4,2.1,0.7,4.3,0.9,6.3c0.1,0.4,0.2,0.9,0.2,1.4
	l0,0c0,0.5,0.1,0.9,0.1,1.4c0,3.6-1.5,6.9-3.9,9.3v0l0,0v0C36.9,58.5,33.6,60,30,60c-3.6,0-6.9-1.5-9.3-3.8l0,0v0v0
	c-2.4-2.4-3.8-5.7-3.8-9.3c0-0.5,0-0.9,0.1-1.4l0-0.1c0-0.4,0.1-0.8,0.2-1.2c0.3-1.9,0.6-4,0.9-6.1c0.2-1.2,0.4-2.4,0.6-3.5h-6.6
	c-2,0-3.9-0.5-5.5-1.4c-1.6-0.9-3.1-2.2-4.2-3.9c-1.1-1.7-1.8-3.5-1.9-5.4c-0.2-1.9,0.1-3.8,0.9-5.6C3.6,12.8,7.7,8.2,12.8,5
	C17.8,1.8,23.8,0,30,0L30,0z M44.8,8.9L44.8,8.9C40.5,6.1,35.3,4.6,30,4.6c-5.3,0-10.5,1.6-14.8,4.3c-4.3,2.7-7.7,6.6-9.7,11.2
	c-0.5,1.1-0.7,2.3-0.6,3.4c0.1,1.1,0.5,2.2,1.2,3.3c0.7,1,1.5,1.8,2.5,2.4c1,0.5,2.1,0.8,3.4,0.8h9.3h17.3h0.1h9.2
	c1.2,0,2.4-0.3,3.4-0.8c1-0.5,1.9-1.3,2.6-2.4c0.7-1,1.1-2.1,1.2-3.3c0.1-1.1-0.1-2.3-0.6-3.4C52.6,15.5,49.1,11.6,44.8,8.9
	L44.8,8.9z M36.8,34.5L36.8,34.5H23.2c-0.3,1.5-0.5,2.9-0.7,4.3c-0.3,2-0.6,4-0.9,6l0,0.2c-0.1,0.3-0.1,0.6-0.2,0.9v0
	c0,0.3,0,0.6,0,0.9c0,2.4,1,4.5,2.5,6l0,0v0c1.5,1.5,3.7,2.5,6.1,2.5s4.5-1,6.1-2.5l0,0v0c1.5-1.5,2.5-3.7,2.5-6.1
	c0-0.3,0-0.6,0-0.9v0v0v0c0-0.3-0.1-0.6-0.2-0.9l0,0l0-0.2c-0.3-2.1-0.6-4.2-0.9-6.4C37.2,37.2,37,35.9,36.8,34.5L36.8,34.5z
	 M43.1,45.5L43.1,45.5l-0.3,1.4C43,46.5,43.1,46,43.1,45.5L43.1,45.5z"/>
</svg>
