<?xml version="1.0" encoding="utf-8"?>
<!-- Generator: Adobe Illustrator 18.0.0, SVG Export Plug-In . SVG Version: 6.00 Build 0)  -->
<!DOCTYPE svg PUBLIC "-//W3C//DTD SVG 1.1//EN" "http://www.w3.org/Graphics/SVG/1.1/DTD/svg11.dtd">
<svg version="1.1" xmlns="http://www.w3.org/2000/svg" xmlns:xlink="http://www.w3.org/1999/xlink" x="0px" y="0px"
	 viewBox="0 0 1000 1000" enable-background="new 0 0 1000 1000" xml:space="preserve">
<g id="Lag_2">
</g>
<g id="Lag_1">
	<path fill="#CC0442" d="M473,933L95,555c-40-39-68-86-81-137C1,369,2,318,19,265c15-46,42-88,76-121c35-34,78-60,124-74
		c54-17,107-18,157-4c45,11,87,33,124,64c37-31,79-53,124-65c50-13,103-13,157,4c46,15,89,41,123,75s61,75,76,121l0,0l0,0
		c18,53,18,104,5,153c-14,51-42,97-81,137l-2,2L527,933C512,948,488,948,473,933L473,933L473,933z M545,192L545,192L545,192L424,313
		c-9,9-23,9-33,0c-9-9-9-23,0-32l77-77l-1-1c-33-31-70-53-110-64c-37-10-76-9-116,3c-34,11-67,31-93,56s-46,57-58,91
		c-13,38-13,75-4,110c10,37,31,72,61,103l353,350l349-349l2-2c31-30,52-65,62-103c9-34,9-72-4-109l0,0c-11-34-31-65-58-91
		c-26-26-58-46-93-56c-40-13-79-13-116-3C608,148,574,166,545,192L545,192z"/>
</g>
</svg>
