<?xml version="1.0" encoding="utf-8"?>
<!-- Generator: Adobe Illustrator 18.0.0, SVG Export Plug-In . SVG Version: 6.00 Build 0)  -->
<!DOCTYPE svg PUBLIC "-//W3C//DTD SVG 1.1//EN" "http://www.w3.org/Graphics/SVG/1.1/DTD/svg11.dtd" [
	<!ENTITY ns_extend "http://ns.adobe.com/Extensibility/1.0/">
	<!ENTITY ns_ai "http://ns.adobe.com/AdobeIllustrator/10.0/">
	<!ENTITY ns_graphs "http://ns.adobe.com/Graphs/1.0/">
	<!ENTITY ns_vars "http://ns.adobe.com/Variables/1.0/">
	<!ENTITY ns_imrep "http://ns.adobe.com/ImageReplacement/1.0/">
	<!ENTITY ns_sfw "http://ns.adobe.com/SaveForWeb/1.0/">
	<!ENTITY ns_custom "http://ns.adobe.com/GenericCustomNamespace/1.0/">
	<!ENTITY ns_adobe_xpath "http://ns.adobe.com/XPath/1.0/">
]>
<svg version="1.1" id="Lag_1" xmlns:x="&ns_extend;" xmlns:i="&ns_ai;" xmlns:graph="&ns_graphs;"
	 xmlns="http://www.w3.org/2000/svg" xmlns:xlink="http://www.w3.org/1999/xlink" x="0px" y="0px" viewBox="0 0 100 100"
	 enable-background="new 0 0 100 100" xml:space="preserve">
<metadata>
	<sfw  xmlns="&ns_sfw;">
		<slices></slices>
		<sliceSourceBounds  width="99" height="88.8" y="-94.4" x="0.5" bottomLeftOrigin="true"></sliceSourceBounds>
	</sfw>
</metadata>
<path fill="#FFFFFF" d="M47.3,93.3L9.5,55.5c-4-3.9-6.8-8.6-8.1-13.7c-1.3-4.9-1.2-10,0.5-15.3c1.5-4.6,4.2-8.8,7.6-12.1
	C13,11,17.3,8.4,21.9,7c5.4-1.7,10.7-1.8,15.7-0.4C42.1,7.7,46.3,9.9,50,13c3.7-3.1,7.9-5.3,12.4-6.5c5-1.3,10.3-1.3,15.7,0.4
	c4.6,1.5,8.9,4.1,12.3,7.5c3.4,3.4,6.1,7.5,7.6,12.1v0v0c1.8,5.3,1.8,10.4,0.5,15.3c-1.4,5.1-4.2,9.7-8.1,13.7l-0.2,0.2L52.7,93.3
	C51.2,94.8,48.8,94.8,47.3,93.3L47.3,93.3L47.3,93.3z M54.5,19.2L54.5,19.2L54.5,19.2L42.4,31.3c-0.9,0.9-2.3,0.9-3.3,0
	c-0.9-0.9-0.9-2.3,0-3.2l7.7-7.7l-0.1-0.1c-3.3-3.1-7-5.3-11-6.4c-3.7-1-7.6-0.9-11.6,0.3c-3.4,1.1-6.7,3.1-9.3,5.6
	c-2.6,2.5-4.6,5.7-5.8,9.1c-1.3,3.8-1.3,7.5-0.4,11c1,3.7,3.1,7.2,6.1,10.3L50,85.2l34.9-34.9l0.2-0.2c3.1-3,5.2-6.5,6.2-10.3
	c0.9-3.4,0.9-7.2-0.4-10.9v0c-1.1-3.4-3.1-6.5-5.8-9.1c-2.6-2.6-5.8-4.6-9.3-5.6c-4-1.3-7.9-1.3-11.6-0.3
	C60.8,14.8,57.4,16.6,54.5,19.2L54.5,19.2z"/>
</svg>
