<?xml version="1.0" encoding="utf-8"?>
<!-- Generator: Adobe Illustrator 18.0.0, SVG Export Plug-In . SVG Version: 6.00 Build 0)  -->
<!DOCTYPE svg PUBLIC "-//W3C//DTD SVG 1.1//EN" "http://www.w3.org/Graphics/SVG/1.1/DTD/svg11.dtd">
<svg version="1.1" id="Lag_1" xmlns="http://www.w3.org/2000/svg" xmlns:xlink="http://www.w3.org/1999/xlink" x="0px" y="0px"
	 viewBox="0 0 60 60" enable-background="new 0 0 60 60" xml:space="preserve">
<path fill="#878787" d="M28.4,56.2L5.5,33.4c-2.4-2.4-4.1-5.2-4.9-8.3c-0.8-2.9-0.7-6.1,0.3-9.3c0.9-2.8,2.6-5.3,4.6-7.3
	c2.1-2,4.7-3.6,7.5-4.5c3.3-1,6.5-1.1,9.5-0.3c2.7,0.7,5.2,2.1,7.5,3.9c2.3-1.9,4.8-3.2,7.5-3.9c3-0.8,6.3-0.8,9.5,0.3
	c2.8,0.9,5.4,2.5,7.5,4.5c2.1,2,3.7,4.6,4.6,7.3v0v0c1.1,3.2,1.1,6.3,0.3,9.3c-0.8,3.1-2.5,5.9-4.9,8.3l-0.1,0.1L31.6,56.2
	C30.7,57.1,29.3,57.1,28.4,56.2L28.4,56.2L28.4,56.2z M32.7,11.3L32.7,11.3L32.7,11.3l-7.4,7.4c-0.5,0.5-1.4,0.5-2,0
	c-0.5-0.5-0.5-1.4,0-2l4.7-4.7L28,12c-2-1.9-4.2-3.2-6.7-3.9c-2.2-0.6-4.6-0.6-7,0.2c-2.1,0.7-4,1.9-5.6,3.4
	c-1.6,1.5-2.8,3.4-3.5,5.5c-0.8,2.3-0.8,4.5-0.2,6.6c0.6,2.3,1.9,4.4,3.7,6.2L30,51.4l21.1-21.1l0.1-0.1c1.9-1.8,3.2-4,3.7-6.2
	c0.6-2.1,0.5-4.3-0.2-6.6v0c-0.7-2.1-1.9-4-3.5-5.5c-1.6-1.6-3.5-2.8-5.6-3.4c-2.4-0.8-4.8-0.8-7-0.2C36.5,8.7,34.5,9.8,32.7,11.3
	L32.7,11.3z"/>
</svg>
