<?xml version="1.0" encoding="utf-8"?>
<!-- Generator: Adobe Illustrator 18.0.0, SVG Export Plug-In . SVG Version: 6.00 Build 0)  -->
<!DOCTYPE svg PUBLIC "-//W3C//DTD SVG 1.1//EN" "http://www.w3.org/Graphics/SVG/1.1/DTD/svg11.dtd">
<svg version="1.1" id="Lag_1" xmlns="http://www.w3.org/2000/svg" xmlns:xlink="http://www.w3.org/1999/xlink" x="0px" y="0px"
	 viewBox="0 0 60 60" enable-background="new 0 0 60 60" xml:space="preserve">
<path fill="#878787" d="M46.7,33.1c0-1.3,1-2.3,2.3-2.3s2.3,1,2.3,2.3v22.6c0,1.3-1,2.3-2.3,2.3H49H11c-1.3,0-2.3-1-2.3-2.3v-0.1
	V33.1c0-1.3,1-2.3,2.3-2.3c1.3,0,2.3,1,2.3,2.3v20.3h33.4V33.1L46.7,33.1z M3.9,33.7L3.9,33.7L30,7.6l26.1,26.1
	c0.9,0.9,2.4,0.9,3.3,0c0.9-0.9,0.9-2.4,0-3.3L31.7,2.8l0,0c-0.9-0.9-2.4-0.9-3.3,0L0.7,30.4c-0.9,0.9-0.9,2.4,0,3.3
	C1.6,34.6,3,34.6,3.9,33.7L3.9,33.7z"/>
</svg>
