<?xml version="1.0" encoding="utf-8"?>
<!-- Generator: Adobe Illustrator 18.0.0, SVG Export Plug-In . SVG Version: 6.00 Build 0)  -->
<!DOCTYPE svg PUBLIC "-//W3C//DTD SVG 1.1//EN" "http://www.w3.org/Graphics/SVG/1.1/DTD/svg11.dtd" [
	<!ENTITY ns_extend "http://ns.adobe.com/Extensibility/1.0/">
	<!ENTITY ns_ai "http://ns.adobe.com/AdobeIllustrator/10.0/">
	<!ENTITY ns_graphs "http://ns.adobe.com/Graphs/1.0/">
	<!ENTITY ns_vars "http://ns.adobe.com/Variables/1.0/">
	<!ENTITY ns_imrep "http://ns.adobe.com/ImageReplacement/1.0/">
	<!ENTITY ns_sfw "http://ns.adobe.com/SaveForWeb/1.0/">
	<!ENTITY ns_custom "http://ns.adobe.com/GenericCustomNamespace/1.0/">
	<!ENTITY ns_adobe_xpath "http://ns.adobe.com/XPath/1.0/">
]>
<svg version="1.1" id="Lag_1" xmlns:x="&ns_extend;" xmlns:i="&ns_ai;" xmlns:graph="&ns_graphs;"
	 xmlns="http://www.w3.org/2000/svg" xmlns:xlink="http://www.w3.org/1999/xlink" x="0px" y="0px" viewBox="0 0 100 100"
	 enable-background="new 0 0 100 100" xml:space="preserve">
<metadata>
	<sfw  xmlns="&ns_sfw;">
		<slices></slices>
		<sliceSourceBounds  width="91.8" height="99" y="-99.5" x="4.1" bottomLeftOrigin="true"></sliceSourceBounds>
	</sfw>
</metadata>
<path fill="#FFFFFF" d="M94.5,24c0.3,0.7,0.6,1.3,0.8,2.1l0,0c0.4,1.3,0.6,2.5,0.6,3.9v56.4c0,3.6-1.5,6.9-3.9,9.3
	c-2.4,2.4-5.7,3.9-9.3,3.9H17.3c-3.6,0-6.9-1.5-9.3-3.9c-2.4-2.4-3.9-5.7-3.9-9.3V29.9c0-3.7,1.5-7,3.9-9.3c2.4-2.4,5.7-3.9,9.3-3.9
	h31.8c1.1-3.6,3.1-6.8,5.7-9.4L55,7.2c4.2-4.1,10-6.7,16.3-6.7c6.4,0,12.2,2.6,16.4,6.8h0c4.2,4.2,6.8,10,6.8,16.4V24L94.5,24z
	 M71.3,12.5c3.1,0,6,1.3,8,3.3c2.1,2.1,3.3,4.9,3.3,8c0,3.1-1.3,6-3.3,8.1c-2,2.1-4.9,3.3-8,3.3c-3.1,0-6-1.3-8-3.3
	c-2-2.1-3.3-4.9-3.3-8.1c0-3.1,1.3-6,3.3-8C65.3,13.8,68.1,12.5,71.3,12.5L71.3,12.5z M76.3,18.8c-1.3-1.3-3.1-2.1-5.1-2.1
	c-2,0-3.8,0.8-5,2.1c-1.3,1.3-2.1,3.1-2.1,5.1c0,2,0.8,3.8,2.1,5.1c1.3,1.3,3.1,2.1,5,2.1c2,0,3.8-0.8,5.1-2.1
	c1.3-1.3,2.1-3.1,2.1-5.1C78.4,21.9,77.6,20.1,76.3,18.8L76.3,18.8z M48,23.8H17.3c-1.7,0-3.2,0.7-4.3,1.8c-1.1,1.1-1.8,2.6-1.8,4.4
	v56.4c0,1.7,0.7,3.2,1.8,4.3c1.1,1.1,2.6,1.8,4.3,1.8h65.4c1.7,0,3.2-0.7,4.3-1.8c1.1-1.1,1.8-2.6,1.8-4.3V38.9
	c-2.4,2.8-5.4,5-8.9,6.4L72.9,54c-0.7,0.9-2.1,1-3,0.3c-0.1-0.1-0.2-0.2-0.3-0.3h0l0-0.1l-7-8.6c-4.2-1.7-7.8-4.6-10.4-8.3
	C49.6,33.2,48,28.7,48,23.8L48,23.8z M84.7,10.3c-3.4-3.4-8.2-5.5-13.4-5.5c-5.2,0-9.9,2.1-13.3,5.4l-0.1,0.1
	c-3.4,3.5-5.6,8.2-5.6,13.5c0,4,1.2,7.7,3.4,10.8c2.2,3.2,5.3,5.6,8.9,7c0.3,0.1,0.7,0.3,0.9,0.6l5.8,7.1l5.8-7.1
	c0.2-0.3,0.5-0.5,0.9-0.7c3.7-1.4,6.8-3.8,9-7c2.1-3.1,3.4-6.8,3.4-10.8C90.3,18.5,88.1,13.7,84.7,10.3L84.7,10.3L84.7,10.3
	L84.7,10.3z M56.9,50.5c0.8-0.8,2.2-0.8,3,0c0.8,0.8,0.8,2.2,0,3l-5.8,5.9l12.1,12.1l13.5-13.5c0.8-0.8,2.2-0.8,3,0
	c0.8,0.8,0.8,2.2,0,3L69.2,74.4l4.5,4.5c0.8,0.8,0.8,2.2,0,3c-0.8,0.8-2.2,0.8-3,0L64.8,76l0,0l0,0l0,0l0,0l0,0l0-0.1L51.1,62.3
	L26.8,86.6c-0.8,0.8-2.2,0.8-3,0c-0.8-0.8-0.8-2.2,0-3l24.3-24.3l-10-10L21.8,65.6c-0.8,0.8-2.2,0.8-3,0c-0.8-0.8-0.8-2.2,0-3
	l16.3-16.3L24.8,36c-0.8-0.8-0.8-2.2,0-3c0.8-0.8,2.2-0.8,3,0l11.7,11.7l0,0l0,0l0,0l0,0l11.4,11.5L56.9,50.5L56.9,50.5z"/>
</svg>
