<?xml version="1.0" encoding="utf-8"?>
<!-- Generator: Adobe Illustrator 18.0.0, SVG Export Plug-In . SVG Version: 6.00 Build 0)  -->
<!DOCTYPE svg PUBLIC "-//W3C//DTD SVG 1.1//EN" "http://www.w3.org/Graphics/SVG/1.1/DTD/svg11.dtd">
<svg version="1.1" id="Lag_1" xmlns="http://www.w3.org/2000/svg" xmlns:xlink="http://www.w3.org/1999/xlink" x="0px" y="0px"
	 viewBox="0 0 60 60" enable-background="new 0 0 60 60" xml:space="preserve">
<path fill="#878787" d="M57,14.2c0.2,0.4,0.4,0.8,0.5,1.2l0,0c0.2,0.8,0.4,1.5,0.4,2.3V52c0,2.2-0.9,4.2-2.3,5.7
	C54,59.1,52,60,49.8,60H10.2C8,60,6,59.1,4.5,57.7c-1.4-1.5-2.3-3.5-2.3-5.7V17.8c0-2.2,0.9-4.2,2.3-5.7C6,10.7,8,9.8,10.2,9.8h19.3
	c0.7-2.2,1.9-4.1,3.5-5.7L33,4.1C35.6,1.6,39,0,42.9,0c3.9,0,7.4,1.6,9.9,4.1h0c2.5,2.5,4.1,6.1,4.1,9.9V14.2L57,14.2z M42.9,7.3
	c1.9,0,3.6,0.8,4.9,2c1.2,1.2,2,3,2,4.9c0,1.9-0.8,3.6-2,4.9c-1.2,1.2-3,2-4.9,2c-1.9,0-3.6-0.8-4.9-2c-1.2-1.2-2-3-2-4.9
	c0-1.9,0.8-3.6,2-4.9C39.3,8,41,7.3,42.9,7.3L42.9,7.3z M45.9,11.1c-0.8-0.8-1.9-1.3-3.1-1.3c-1.2,0-2.3,0.5-3.1,1.3
	c-0.8,0.8-1.3,1.9-1.3,3.1c0,1.2,0.5,2.3,1.3,3.1c0.8,0.8,1.9,1.3,3.1,1.3c1.2,0,2.3-0.5,3.1-1.3c0.8-0.8,1.3-1.9,1.3-3.1
	C47.2,13,46.7,11.9,45.9,11.1L45.9,11.1z M28.8,14.1H10.2c-1,0-2,0.4-2.6,1.1c-0.7,0.7-1.1,1.6-1.1,2.6V52c0,1,0.4,1.9,1.1,2.6
	c0.7,0.7,1.6,1.1,2.6,1.1h39.7c1,0,2-0.4,2.6-1.1c0.7-0.7,1.1-1.6,1.1-2.6V23.3c-1.5,1.7-3.3,3-5.4,3.9l-4.3,5.3
	c-0.4,0.5-1.3,0.6-1.8,0.2c-0.1-0.1-0.1-0.1-0.2-0.2h0l0,0l-4.3-5.2c-2.6-1-4.7-2.8-6.3-5C29.7,19.8,28.8,17.1,28.8,14.1L28.8,14.1z
	 M51,5.9c-2.1-2.1-5-3.4-8.1-3.4c-3.1,0-6,1.2-8.1,3.3l-0.1,0.1c-2.1,2.1-3.4,5-3.4,8.2c0,2.4,0.8,4.7,2,6.5
	c1.3,1.9,3.2,3.4,5.4,4.2c0.2,0.1,0.4,0.2,0.5,0.4l3.5,4.3l3.5-4.3c0.1-0.2,0.3-0.3,0.5-0.4c2.2-0.8,4.1-2.3,5.4-4.2
	c1.3-1.9,2-4.1,2-6.5C54.4,10.9,53.1,8,51,5.9L51,5.9L51,5.9L51,5.9z M34.2,30.3c0.5-0.5,1.3-0.5,1.8,0c0.5,0.5,0.5,1.3,0,1.8
	l-3.5,3.5l7.3,7.3l8.2-8.2c0.5-0.5,1.3-0.5,1.8,0c0.5,0.5,0.5,1.3,0,1.8l-8.2,8.2l2.7,2.7c0.5,0.5,0.5,1.3,0,1.8
	c-0.5,0.5-1.3,0.5-1.8,0L39,45.8l0,0l0,0l0,0l0,0l0,0l0,0l-8.2-8.2L15.9,52.2c-0.5,0.5-1.3,0.5-1.8,0c-0.5-0.5-0.5-1.3,0-1.8
	l14.7-14.7l-6.1-6.1l-9.9,9.9c-0.5,0.5-1.3,0.5-1.8,0c-0.5-0.5-0.5-1.3,0-1.8l9.9-9.9l-6.3-6.3c-0.5-0.5-0.5-1.3,0-1.8
	c0.5-0.5,1.3-0.5,1.8,0l7.1,7.1l0,0l0,0l0,0l0,0l6.9,6.9L34.2,30.3L34.2,30.3z"/>
</svg>
