<?xml version="1.0" encoding="utf-8"?>
<!-- Generator: Adobe Illustrator 18.0.0, SVG Export Plug-In . SVG Version: 6.00 Build 0)  -->
<!DOCTYPE svg PUBLIC "-//W3C//DTD SVG 1.1//EN" "http://www.w3.org/Graphics/SVG/1.1/DTD/svg11.dtd">
<svg version="1.1" id="Lag_1" xmlns="http://www.w3.org/2000/svg" xmlns:xlink="http://www.w3.org/1999/xlink" x="0px" y="0px"
	 viewBox="0 0 60 60" enable-background="new 0 0 60 60" xml:space="preserve">
<path fill="#878787" d="M50.5,36.5l8.2,4.4c1.1,0.6,1.5,2,0.9,3.1c-0.2,0.4-0.6,0.7-0.9,1L31.1,59.7c-0.7,0.4-1.5,0.3-2.2,0
	L1.3,44.9c-1.1-0.6-1.5-2-0.9-3.1c0.2-0.4,0.6-0.7,0.9-1l8.2-4.4L1.3,32c-1.1-0.6-1.5-2-0.9-3.1c0.2-0.4,0.6-0.7,0.9-0.9l8.2-4.4
	l-8.2-4.4c-1.1-0.6-1.5-2-0.9-3.1c0.2-0.4,0.6-0.7,0.9-1L28.9,0.3c0.7-0.4,1.5-0.4,2.2,0l27.6,14.8c1.1,0.6,1.5,2,0.9,3.1
	c-0.2,0.4-0.6,0.7-0.9,0.9l-8.2,4.4l8.2,4.4c1.1,0.6,1.5,2,0.9,3.1c-0.2,0.4-0.6,0.7-0.9,1L50.5,36.5L50.5,36.5z M52.8,42.9L45.6,39
	l-14.5,7.8c-0.2,0.1-0.5,0.2-0.7,0.2h-0.1l-0.2,0H30H30h-0.1l-0.2,0h-0.1c-0.2,0-0.5-0.1-0.7-0.2L14.4,39l-7.2,3.8L30,55.1
	L52.8,42.9L52.8,42.9z M30,42.2c7.6-4.1,15.2-8.2,22.8-12.2l-7.2-3.8L31.1,34c-0.2,0.1-0.5,0.2-0.7,0.2l-0.1,0h-0.2l-0.1,0H30
	l-0.1,0h-0.2l-0.1,0c-0.2,0-0.5-0.1-0.7-0.2l-14.5-7.8L7.2,30C14.8,34.1,22.4,38.1,30,42.2L30,42.2z M30,29.3
	c7.6-4.1,15.2-8.1,22.8-12.2L30,4.9L7.2,17.1C14.8,21.2,22.4,25.3,30,29.3L30,29.3z"/>
</svg>
