<?xml version="1.0" encoding="utf-8"?>
<!-- Generator: Adobe Illustrator 18.0.0, SVG Export Plug-In . SVG Version: 6.00 Build 0)  -->
<!DOCTYPE svg PUBLIC "-//W3C//DTD SVG 1.1//EN" "http://www.w3.org/Graphics/SVG/1.1/DTD/svg11.dtd">
<svg version="1.1" id="Lag_1" xmlns="http://www.w3.org/2000/svg" xmlns:xlink="http://www.w3.org/1999/xlink" x="0px" y="0px"
	 viewBox="0 0 60 60" enable-background="new 0 0 60 60" xml:space="preserve">
<path fill="#878787" d="M50.5,59.1L50.5,59.1L50.5,59.1L50.5,59.1L50.5,59.1h-0.1h-0.1H25.5c-14.9,0-14.9-22.8,0-22.8l0,0l7.2,0v0
	c4.8,0,4.6-7.2,0-7.2h-23H9.6h0h0h0h0h0c-1.2,0-2.2-1.1-2.2-2.3v-6.9c-1.7-0.4-3.3-1.3-4.5-2.6l-0.1-0.1c-3.6-3.8-3.6-9.8,0.1-13.5
	l0.1-0.1C6.7-0.1,12.8,0,16.5,3.7c3.7,3.7,3.7,9.9,0,13.6h0l0,0c-1.2,1.2-2.8,2.1-4.5,2.5v6.5h20.8c8.1,0,8.6,12.8,0,12.8l0,0h-7.2
	l0,0c-11.2,0-11.3,17.3,0,17.3H48v-6.5c-1.7-0.4-3.3-1.3-4.5-2.6h0l0,0c-1.7-1.8-2.8-4.1-2.8-6.8c0-2.7,1.1-5.1,2.8-6.8
	c3.8-3.7,9.9-3.7,13.7,0l0,0c1.7,1.8,2.8,4.2,2.8,6.8c0,2.7-1.1,5.1-2.8,6.8c-1.2,1.2-2.8,2.1-4.5,2.6v6.9
	C52.6,58.1,51.7,59.1,50.5,59.1L50.5,59.1z M13.2,14.1L13.2,14.1c2-2,2-5.2,0-7.2c-1.9-1.9-5.1-2-7-0.1L6.1,6.9C4.2,8.8,4.1,12,6,14
	l0.1,0.1C8,16,11.2,16,13.2,14.1L13.2,14.1z M53.9,44.1c0.9-0.9,1.5-2.2,1.5-3.6c0-1.4-0.6-2.6-1.5-3.6h0l0,0C52,35,48.7,35,46.8,37
	c-0.9,0.9-1.5,2.2-1.5,3.6c0,1.4,0.6,2.7,1.5,3.6h0C48.7,46.1,51.9,46.1,53.9,44.1L53.9,44.1z"/>
</svg>
