<?xml version="1.0" encoding="utf-8"?>
<!-- Generator: Adobe Illustrator 18.0.0, SVG Export Plug-In . SVG Version: 6.00 Build 0)  -->
<!DOCTYPE svg PUBLIC "-//W3C//DTD SVG 1.1//EN" "http://www.w3.org/Graphics/SVG/1.1/DTD/svg11.dtd" [
	<!ENTITY ns_extend "http://ns.adobe.com/Extensibility/1.0/">
	<!ENTITY ns_ai "http://ns.adobe.com/AdobeIllustrator/10.0/">
	<!ENTITY ns_graphs "http://ns.adobe.com/Graphs/1.0/">
	<!ENTITY ns_vars "http://ns.adobe.com/Variables/1.0/">
	<!ENTITY ns_imrep "http://ns.adobe.com/ImageReplacement/1.0/">
	<!ENTITY ns_sfw "http://ns.adobe.com/SaveForWeb/1.0/">
	<!ENTITY ns_custom "http://ns.adobe.com/GenericCustomNamespace/1.0/">
	<!ENTITY ns_adobe_xpath "http://ns.adobe.com/XPath/1.0/">
]>
<svg version="1.1" id="Lag_1" xmlns:x="&ns_extend;" xmlns:i="&ns_ai;" xmlns:graph="&ns_graphs;"
	 xmlns="http://www.w3.org/2000/svg" xmlns:xlink="http://www.w3.org/1999/xlink" x="0px" y="0px" viewBox="0 0 100 100"
	 enable-background="new 0 0 100 100" xml:space="preserve">
<metadata>
	<sfw  xmlns="&ns_sfw;">
		<slices></slices>
		<sliceSourceBounds  width="98" height="51.9" y="-75.9" x="1" bottomLeftOrigin="true"></sliceSourceBounds>
	</sfw>
</metadata>
<path fill="#FFFFFF" d="M5.4,32.8c-2.4,0-4.4-2-4.4-4.4c0-2.4,2-4.4,4.4-4.4h89.2c2.4,0,4.4,2,4.4,4.4c0,2.4-2,4.4-4.4,4.4H5.4
	L5.4,32.8z M5.4,54.4L5.4,54.4C3,54.4,1,52.4,1,50c0-2.4,2-4.4,4.4-4.4h89.2c2.4,0,4.4,2,4.4,4.4c0,2.4-2,4.4-4.4,4.4H5.4L5.4,54.4z
	 M5.4,75.9L5.4,75.9C3,75.9,1,74,1,71.6c0-2.4,2-4.4,4.4-4.4h89.2c2.4,0,4.4,2,4.4,4.4c0,2.4-2,4.4-4.4,4.4H5.4L5.4,75.9z"/>
</svg>
