<?xml version="1.0" encoding="utf-8"?>
<!-- Generator: Adobe Illustrator 18.0.0, SVG Export Plug-In . SVG Version: 6.00 Build 0)  -->
<!DOCTYPE svg PUBLIC "-//W3C//DTD SVG 1.1//EN" "http://www.w3.org/Graphics/SVG/1.1/DTD/svg11.dtd">
<svg version="1.1" id="Lag_1" xmlns="http://www.w3.org/2000/svg" xmlns:xlink="http://www.w3.org/1999/xlink" x="0px" y="0px"
	 viewBox="0 0 60 60" enable-background="new 0 0 60 60" xml:space="preserve">
<path fill="#878787" d="M57.7,4.4H2.3C1,4.4,0,5.4,0,6.7v46.6c0,1.3,1,2.3,2.3,2.3h55.4c1.3,0,2.3-1,2.3-2.3V6.7
	C60,5.4,59,4.4,57.7,4.4L57.7,4.4z M55.4,51L55.4,51H4.6v-5.1L16.5,34l8.2,8.2l0,0l0,0l0,0l0,0l0,0l0,0l4.8,4.8
	c0.5,0.5,1.4,0.5,1.9,0c0.5-0.5,0.5-1.4,0-2l-3.9-3.9l11.2-11.2l16.5,16.5V51L55.4,51z M55.4,42.7L55.4,42.7L39.9,27.2
	c-0.5-0.5-1.4-0.5-2,0L25.8,39.3l-8.3-8.3c-0.5-0.5-1.4-0.5-2,0L4.6,42V9h50.8V42.7L55.4,42.7z M17.4,27.6L17.4,27.6
	c4.4,0,8-3.6,8-8c0-4.4-3.6-8-8-8c-4.4,0-8,3.6-8,8C9.4,23.9,13,27.6,17.4,27.6L17.4,27.6z M17.4,14.2L17.4,14.2
	c2.9,0,5.3,2.4,5.3,5.3c0,2.9-2.4,5.3-5.3,5.3c-2.9,0-5.3-2.4-5.3-5.3C12.1,16.6,14.5,14.2,17.4,14.2L17.4,14.2z"/>
</svg>
