<?xml version="1.0" encoding="utf-8"?>
<!-- Generator: Adobe Illustrator 18.0.0, SVG Export Plug-In . SVG Version: 6.00 Build 0)  -->
<!DOCTYPE svg PUBLIC "-//W3C//DTD SVG 1.1//EN" "http://www.w3.org/Graphics/SVG/1.1/DTD/svg11.dtd">
<svg version="1.1" id="Lag_1" xmlns="http://www.w3.org/2000/svg" xmlns:xlink="http://www.w3.org/1999/xlink" x="0px" y="0px"
	 viewBox="0 0 60 60" enable-background="new 0 0 60 60" xml:space="preserve">
<path fill="#878787" d="M24.4,5.6L24.4,5.6v18.8H5.6C2.5,24.4,0,26.9,0,30s2.5,5.6,5.6,5.6h18.8v18.8c0,3.1,2.5,5.6,5.6,5.6
	c3.1,0,5.6-2.5,5.6-5.6V35.6h18.8c3.1,0,5.6-2.5,5.6-5.6s-2.5-5.6-5.6-5.6H35.6V5.6C35.6,2.5,33.1,0,30,0C26.9,0,24.4,2.5,24.4,5.6
	L24.4,5.6z"/>
</svg>
