<?xml version="1.0" encoding="utf-8"?>
<!-- Generator: Adobe Illustrator 18.0.0, SVG Export Plug-In . SVG Version: 6.00 Build 0)  -->
<!DOCTYPE svg PUBLIC "-//W3C//DTD SVG 1.1//EN" "http://www.w3.org/Graphics/SVG/1.1/DTD/svg11.dtd">
<svg version="1.1" id="Lag_1" xmlns="http://www.w3.org/2000/svg" xmlns:xlink="http://www.w3.org/1999/xlink" x="0px" y="0px"
	 viewBox="0 0 60 60" enable-background="new 0 0 60 60" xml:space="preserve">
<path fill="#878787" d="M20.5,11.1c-1.1,0.4-2.1,1-3,1.6c-1,0.6-1.8,1.4-2.6,2.2l0,0h0c-0.8,0.8-1.5,1.7-2.2,2.6v0
	c-0.6,0.9-1.2,1.9-1.6,3c-0.3,0.8,0,1.6,0.8,2c0.8,0.3,1.6,0,2-0.8c0.4-0.9,0.8-1.7,1.3-2.5v0c0.5-0.8,1.2-1.5,1.8-2.2
	c0.7-0.7,1.4-1.3,2.2-1.8c0.8-0.5,1.6-1,2.5-1.4c0.8-0.3,1.1-1.2,0.8-2C22.1,11.1,21.2,10.7,20.5,11.1L20.5,11.1z M59.3,55.7
	L59.3,55.7L48.4,44.9c1.8-2.1,3.2-4.5,4.3-7c1.3-3.2,2.1-6.8,2.1-10.5c0-3.6-0.7-7.1-2-10.3l-0.1-0.1c-1.4-3.3-3.3-6.2-5.8-8.8
	L46.7,8c-2.5-2.5-5.5-4.5-8.9-5.9l0,0v0C34.6,0.7,31.1,0,27.4,0C19.8,0,13,3.1,8,8c-2.5,2.5-4.5,5.5-5.9,8.9C0.7,20.2,0,23.7,0,27.4
	c0,3.6,0.7,7.1,2,10.3l0.1,0.1c1.4,3.4,3.4,6.4,5.9,8.9h0c2.5,2.5,5.5,4.6,8.9,5.9l0,0h0c3.2,1.3,6.8,2.1,10.5,2.1
	c3.7,0,7.2-0.7,10.5-2.1c2.5-1.1,4.9-2.5,7-4.3l10.9,10.9c1,1,2.6,1,3.5,0C60.3,58.3,60.2,56.7,59.3,55.7L59.3,55.7z M43.2,43.2
	L43.2,43.2L43.2,43.2L43.2,43.2c-2.1,2.1-4.5,3.7-7.3,4.9c-2.6,1.1-5.5,1.7-8.6,1.7c-3,0-5.9-0.6-8.5-1.7l0,0
	c-2.7-1.1-5.2-2.8-7.3-4.8l0,0h0c-2.1-2.1-3.7-4.5-4.9-7.3l-0.1-0.1c-1-2.6-1.6-5.4-1.6-8.4c0-3,0.6-5.9,1.7-8.6
	c1.1-2.7,2.8-5.2,4.9-7.3c4-4,9.6-6.5,15.8-6.5c3,0,5.9,0.6,8.6,1.7c2.7,1.1,5.2,2.8,7.3,4.9l0.1,0.1c2,2,3.6,4.5,4.7,7.1l0.1,0.1
	c1.1,2.6,1.6,5.4,1.6,8.4c0,3-0.6,5.9-1.7,8.5C46.9,38.7,45.2,41.1,43.2,43.2L43.2,43.2z M43.6,25.9L43.6,25.9
	c-0.8,0-1.5,0.7-1.5,1.5c0,1.9-0.4,3.8-1.1,5.6l0,0.1c-0.7,1.7-1.8,3.3-3.2,4.7c-1.4,1.4-3,2.5-4.8,3.2c-1.8,0.7-3.7,1.1-5.6,1.1
	c-0.8,0-1.5,0.7-1.5,1.5c0,0.8,0.7,1.5,1.5,1.5c2.3,0,4.6-0.5,6.8-1.4c2.1-0.9,4.1-2.1,5.7-3.8c1.7-1.7,3-3.6,3.8-5.7l0-0.1
	c0.9-2.2,1.4-4.5,1.4-6.8C45.1,26.5,44.4,25.9,43.6,25.9L43.6,25.9z"/>
</svg>
