<?xml version="1.0" encoding="utf-8"?>
<!-- Generator: Adobe Illustrator 18.0.0, SVG Export Plug-In . SVG Version: 6.00 Build 0)  -->
<!DOCTYPE svg PUBLIC "-//W3C//DTD SVG 1.1//EN" "http://www.w3.org/Graphics/SVG/1.1/DTD/svg11.dtd">
<svg version="1.1" id="Lag_1" xmlns="http://www.w3.org/2000/svg" xmlns:xlink="http://www.w3.org/1999/xlink" x="0px" y="0px"
	 viewBox="0 0 60 60" enable-background="new 0 0 60 60" xml:space="preserve">
<path fill="#878787" d="M57.6,22.9h-5.8c-0.2-0.5-0.4-1.1-0.6-1.6l-0.1-0.1c-0.3-0.6-0.5-1.1-0.8-1.7l4-4l0.1,0c1-1,1-2.5,0-3.4
	l-6.5-6.5v0c-0.9-0.9-2.5-0.9-3.4,0l-4.1,4.1c-0.5-0.3-1.1-0.5-1.7-0.8c-0.6-0.2-1.1-0.4-1.7-0.6V2.4C37.1,1.1,36,0,34.6,0h-9.2
	C24,0,23,1.1,23,2.4v5.8c-0.6,0.2-1.2,0.4-1.7,0.6c-0.6,0.2-1.1,0.5-1.7,0.8l-4-4l-0.1-0.1c-0.9-0.9-2.5-0.9-3.5,0L5.6,12l0,0
	c-0.9,1-0.9,2.5,0,3.5l4.1,4.1c-0.3,0.5-0.5,1-0.7,1.5l0,0.1c-0.2,0.6-0.4,1.1-0.6,1.7H2.4C1.1,23,0,24,0,25.4v9.2
	c0,1.3,1.1,2.4,2.4,2.4h5.8c0.2,0.5,0.4,1.1,0.6,1.6l0.1,0.1c0.2,0.6,0.5,1.1,0.8,1.7l-4,4l-0.1,0.1c-1,1-1,2.5,0,3.4l6.5,6.5l0.1,0
	c1,1,2.5,1,3.4,0l4.1-4.1c0.5,0.3,1,0.5,1.5,0.7l0.1,0.1c0.6,0.2,1.1,0.4,1.7,0.6v5.8c0,1.3,1.1,2.4,2.4,2.4h9.2
	c1.4,0,2.4-1.1,2.4-2.4v-5.8c0.6-0.2,1.2-0.4,1.7-0.6c0.6-0.2,1.1-0.5,1.6-0.8l4,4.1l0,0c1,1,2.5,1,3.4,0l6.5-6.5l0.1-0.1
	c1-0.9,1-2.5,0-3.4l-4.1-4.1c0.3-0.5,0.5-1.1,0.8-1.7c0.3-0.6,0.5-1.1,0.6-1.7h5.8v0c1.3,0,2.4-1.1,2.4-2.4v-9v-0.2
	C60,24,58.9,22.9,57.6,22.9L57.6,22.9z M55.1,32.2L55.1,32.2H50c-1.2,0-2.2,0.9-2.4,2c-0.2,0.9-0.5,1.8-0.9,2.7
	c-0.4,0.9-0.9,1.8-1.4,2.6c-0.6,1-0.4,2.2,0.3,3l0,0l3.7,3.7l-3.1,3.1l-3.7-3.7c-0.9-0.9-2.2-0.9-3.2-0.2c-0.8,0.5-1.6,0.9-2.5,1.3
	c-0.9,0.4-1.9,0.7-2.8,0.9c-1.1,0.3-1.9,1.3-1.9,2.4v5.2h-4.4v-5.2c0-1.2-0.9-2.2-2-2.4c-0.9-0.2-1.8-0.5-2.7-0.9L23,46.6
	c-0.9-0.4-1.7-0.8-2.5-1.3c-1-0.6-2.2-0.4-3,0.4l0,0l-3.7,3.7l-3.1-3.1l3.7-3.7c0.8-0.8,0.9-2.1,0.3-3v0c-0.5-0.8-1-1.7-1.4-2.6
	l-0.1-0.1c-0.4-0.9-0.6-1.8-0.9-2.7c-0.3-1.1-1.3-1.9-2.4-1.9v0H4.9v-4.4h5.2c1.2,0,2.2-0.9,2.4-2c0.2-0.9,0.5-1.8,0.9-2.7l0-0.1
	c0.4-0.9,0.8-1.7,1.3-2.5c0.6-1,0.4-2.2-0.3-3l0,0l-3.7-3.7l3.1-3.1l3.7,3.7c0.8,0.8,2.1,0.9,3,0.3c0.8-0.5,1.7-1,2.6-1.4
	c0.9-0.4,1.8-0.7,2.8-0.9c1.1-0.3,1.9-1.3,1.9-2.4h0V4.9h4.4v5.2c0,1.2,0.9,2.2,2,2.4c0.9,0.2,1.8,0.5,2.7,0.9
	c0.9,0.4,1.8,0.8,2.7,1.4c1,0.6,2.3,0.4,3.1-0.4l3.6-3.6l3.1,3.1l-3.7,3.7c-0.8,0.9-0.9,2.2-0.3,3.1c0.5,0.8,0.9,1.7,1.3,2.5
	l0.1,0.1c0.4,0.9,0.6,1.8,0.9,2.7c0.3,1.1,1.2,1.9,2.4,1.9v0h5.2L55.1,32.2L55.1,32.2z M30,19.7L30,19.7c-2.8,0-5.4,1.2-7.3,3
	c-1.8,1.9-3,4.4-3,7.3c0,2.8,1.2,5.4,3,7.3c1.9,1.9,4.4,3,7.3,3c2.8,0,5.4-1.2,7.3-3c1.9-1.9,3-4.4,3-7.3c0-2.8-1.2-5.4-3-7.3
	C35.4,20.9,32.8,19.7,30,19.7L30,19.7z M35.2,35.2L35.2,35.2c-1.3,1.3-3.2,2.2-5.2,2.2c-2,0-3.9-0.8-5.2-2.2
	c-1.3-1.3-2.1-3.2-2.1-5.2c0-2,0.8-3.9,2.1-5.2c1.3-1.3,3.2-2.2,5.2-2.2c2,0,3.9,0.8,5.2,2.2c1.3,1.3,2.2,3.2,2.2,5.2
	C37.4,32,36.5,33.9,35.2,35.2L35.2,35.2z"/>
</svg>
