<?xml version="1.0" encoding="utf-8"?>
<!-- Generator: Adobe Illustrator 18.0.0, SVG Export Plug-In . SVG Version: 6.00 Build 0)  -->
<!DOCTYPE svg PUBLIC "-//W3C//DTD SVG 1.1//EN" "http://www.w3.org/Graphics/SVG/1.1/DTD/svg11.dtd">
<svg version="1.1" id="Lag_1" xmlns="http://www.w3.org/2000/svg" xmlns:xlink="http://www.w3.org/1999/xlink" x="0px" y="0px"
	 viewBox="0 0 60 60" enable-background="new 0 0 60 60" xml:space="preserve">
<path fill="#878787" d="M31.4,6.8c5.8,0.4,11.1,2.9,15,6.7c3.9,3.9,6.4,9.1,6.8,15h5.4c0.8,0,1.4,0.6,1.4,1.4c0,0.8-0.6,1.4-1.4,1.4
	h-5.4c-0.4,5.8-2.9,11.1-6.8,15c-3.9,3.9-9.1,6.4-15,6.7v5.4c0,0.8-0.6,1.4-1.4,1.4c-0.8,0-1.4-0.6-1.4-1.4v-5.4
	c-5.8-0.3-11.1-2.9-15-6.7c-3.9-3.9-6.4-9.1-6.8-15H1.4C0.6,31.4,0,30.8,0,30c0-0.8,0.6-1.4,1.4-1.4h5.4c0.4-5.8,2.9-11.1,6.8-15
	c3.9-3.9,9.1-6.4,15-6.7V1.4C28.6,0.6,29.2,0,30,0c0.8,0,1.4,0.6,1.4,1.4V6.8L31.4,6.8z M30,27.6c1.3,0,2.4,1.1,2.4,2.4
	c0,1.3-1.1,2.4-2.4,2.4c-1.3,0-2.4-1.1-2.4-2.4C27.6,28.7,28.7,27.6,30,27.6L30,27.6z M30,18.9c3.1,0,5.8,1.2,7.9,3.2h0
	c2,2,3.3,4.8,3.3,7.9c0,3.1-1.2,5.8-3.3,7.8h0c-2,2-4.8,3.3-7.9,3.3c-3.1,0-5.8-1.2-7.9-3.3h0c-2-2-3.3-4.8-3.3-7.8
	c0-3.1,1.2-5.8,3.3-7.9h0C24.2,20.1,26.9,18.9,30,18.9L30,18.9z M35.8,24.2c-1.5-1.5-3.6-2.4-5.8-2.4c-2.3,0-4.4,0.9-5.8,2.4
	c-1.5,1.5-2.4,3.6-2.4,5.8c0,2.3,0.9,4.3,2.4,5.8c1.5,1.5,3.6,2.4,5.8,2.4c2.3,0,4.4-0.9,5.8-2.4c1.5-1.5,2.4-3.5,2.4-5.8
	C38.2,27.7,37.3,25.7,35.8,24.2L35.8,24.2z M43,16.9c-3.3-3.3-7.9-5.4-13-5.4c-5.1,0-9.7,2.1-13,5.4c-3.3,3.4-5.4,8-5.4,13.1
	c0,5.1,2.1,9.7,5.4,13c3.3,3.3,7.9,5.4,13,5.4c5.1,0,9.7-2.1,13-5.4c3.3-3.3,5.4-8,5.4-13C48.4,24.9,46.4,20.3,43,16.9L43,16.9z"/>
</svg>
