<?xml version="1.0" encoding="utf-8"?>
<!-- Generator: Adobe Illustrator 18.0.0, SVG Export Plug-In . SVG Version: 6.00 Build 0)  -->
<!DOCTYPE svg PUBLIC "-//W3C//DTD SVG 1.1//EN" "http://www.w3.org/Graphics/SVG/1.1/DTD/svg11.dtd">
<svg version="1.1" id="Lag_1" xmlns="http://www.w3.org/2000/svg" xmlns:xlink="http://www.w3.org/1999/xlink" x="0px" y="0px"
	 viewBox="0 0 45 20" enable-background="new 0 0 45 20" xml:space="preserve">
<rect x="0.9" y="0.3" fill="none" width="43.2" height="19.5"/>
<g enable-background="new    ">
	<path fill="#009688" d="M2.5,11.5l-0.1-1.1c-0.1-1-0.3-2.9-0.4-4.1C2,5.1,1.9,4.1,1.9,3.4c0-0.9,0-1.7,0.1-2c0.4-0.7,1.3-0.9,2.4-1
		c0.6,0,1.4,0,2.1,0c0.4,0,0.6,0.4,0.6,0.8c0,0.4-0.4,0.6-0.8,0.6C5.6,1.8,5,1.8,4.5,1.8c-0.4,0-0.7,0-1,0.1C3.4,2,3.4,2,3.3,2.1
		v0.2c0,0.3,0,0.6,0,1c0,0.7,0.1,1.7,0.2,3l0.2,2.4c1,0,1.8,0,2.4-0.1c0.4,0,0.7,0.3,0.7,0.6c0,0.4-0.3,0.7-0.6,0.7
		c-0.6,0-1.4,0.1-2.3,0.1c0.1,0.7,0.1,1.2,0.1,1.4C4,14.4,4,16.5,3.7,18c-0.1,0.4-0.4,0.6-0.8,0.6c-0.4-0.1-0.6-0.4-0.6-0.8
		C2.6,16.4,2.6,14.3,2.5,11.5z"/>
	<path fill="#009688" d="M13.8,15V14c0.1-3.6,0.1-4.8,0-8.4c0-1.8-0.1-3.1-0.1-4.2c0-0.4,0.3-0.7,0.7-0.7c0.4,0,0.7,0.3,0.7,0.7
		c0,1,0,2.4,0.1,4.2c0.1,3.6,0.1,4.8,0,8.4V15c0,0.5,0,0.9-0.1,1.2c-0.3,2.3-1.9,2.7-3.5,1.8c-0.7-0.4-1.2-0.9-1.3-1.5
		c-0.1-0.3-0.1-0.6-0.1-1c0,0,0-0.1,0-0.3c0-0.2,0-0.3,0-0.4c0-4.9-0.2-9.4-0.5-13.6c0-0.4,0.3-0.7,0.6-0.7c0.4,0,0.7,0.3,0.7,0.6
		c0.3,4.2,0.5,8.7,0.5,13.7l0,0.8c0,0.2,0,0.4,0,0.5c0.1,0.5,1.2,1.1,1.6,0.9C13.7,16.8,13.7,15.8,13.8,15z"/>
	<path fill="#009688" d="M18.2,3.5V2.8l0-0.1l0-0.1c0-0.1,0-0.2-0.1-0.2C18,2,18,1.6,18.3,1.4c0.3-0.3,0.8-0.2,1.1,0l0.1,0.2
		c0,0.1,0.1,0.2,0.2,0.3c0.1,0.2,0.2,0.5,0.3,0.9l0.5,1.4c0.4,1.4,0.9,3,1.3,5l0.7,3.4c0-1,0-2.8,0.1-5.4c0.1-2.5,0.1-4.5,0.1-5.9
		c0-0.4,0.3-0.7,0.7-0.7s0.7,0.3,0.7,0.7c0,1.4,0,3.6-0.1,6.4c-0.1,2.8-0.2,4.9-0.2,6.4c0,1.8,0,2.5-0.1,3c0,0.2-0.1,0.4-0.1,0.5
		c-0.2,0.4-0.4,0.5-0.8,0.5c-0.4,0-0.6-0.2-0.8-0.5C22,17.5,22,17.4,22,17.2v-0.4c0-0.3-0.1-0.8-0.3-1.3c-0.1-0.6-0.2-0.9-0.3-1.1
		c-0.1-0.6-0.3-1.5-0.6-2.6c-0.5-2.3-0.7-3.6-1.2-5.2c0,0.2,0,0.3,0,0.5c0.1,4.2,0.1,7.8-0.2,10.7c0,0.4-0.4,0.6-0.8,0.6
		c-0.4,0-0.6-0.4-0.6-0.8c0.3-2.8,0.3-6.3,0.2-10.5C18.4,6.2,18.3,4,18.2,3.5z"/>
	<path fill="#009688" d="M33.3,14.8c0,0.2,0,0.8,0,1.9c0,1.1,0,1.9,0,2.4c0,0.4-0.3,0.7-0.7,0.7c-0.4,0-0.7-0.3-0.7-0.7v-0.7
		c-1.1,0.6-2.9,0.1-3.6-1c-0.6-1-0.7-3.2-0.8-6c0-1.5,0-3.1,0.1-4.7c0-0.7,0-1.2,0-1.4c0-2.1,0.1-3.8,1.3-4.7
		c1.1-0.7,3.6-0.3,4.2,2.3c0.2,0.7,0.2,1.7,0.1,3c0,0.4-0.4,0.6-0.8,0.6c-0.4,0-0.6-0.4-0.6-0.8c0.2-2.3,0-3.6-1.3-4
		c-0.4-0.1-0.6-0.1-0.8,0c-0.6,0.4-0.7,1.5-0.7,3.5c0,0.2,0,0.6,0,1.4c0,1.5-0.1,3.2-0.1,4.7c0.1,2.7,0.2,4.7,0.6,5.3
		c0.3,0.5,1.6,0.9,2,0.2c0,0,0-0.1,0-0.3l0.1-0.8c0.1-1.3,0.2-3.3,0.2-4.6c0-0.3,0-0.6,0-0.7c0-0.1,0-0.1,0-0.2l0,0.2
		c-0.1,0-0.2,0-0.3,0c-0.1,0-0.3,0.1-0.5,0.1c-0.4,0-1.1-0.2-0.8-1c0.1-0.2,0.2-0.4,0.5-0.5C30.7,9,30.9,9,31,9c0.2,0,0.4,0,0.6,0
		c0.2,0,0.4,0,0.6,0c0.1,0,0.2,0,0.3,0c0.2,0,0.3,0.1,0.4,0.2c0.2,0.2,0.3,0.5,0.3,0.8c0,0.1,0,0.1,0,0.2v0.1
		C33.3,11.6,33.3,13.1,33.3,14.8z"/>
	<path fill="#009688" d="M36,14.4l-0.1-3c-0.1-2.7-0.2-4.6-0.2-6.5c0,0,0-0.3,0-0.9c0-1.1,0-1.9,0.1-2.6c0.3-1.1,0.7-1.3,1.7-1.4
		c2.3-0.2,3.3,1.5,3.6,3.7c0.3,2.1,0.5,5.4,0.6,9.7c0,0.6,0,1,0,1.4c0,0.8,0,1.8,0.1,2.6c0.1,0.4-0.2,0.7-0.6,0.8
		c-0.4,0.1-0.7-0.2-0.8-0.6c-0.1-0.9-0.2-2-0.1-2.9c0-0.3,0-0.8,0-1.3c0-1.3-0.1-2.4-0.1-3.1c-0.3,0-0.7,0-1.3-0.1
		c-0.8,0-1.3-0.1-1.6-0.1c-0.1,0-0.1,0-0.2,0c0.1,2.5,0.1,3.9,0.1,4.2c0.1,0.9,0.1,2.4-0.2,3.4c-0.1,0.4-0.5,0.6-0.8,0.5
		c-0.4-0.1-0.6-0.5-0.5-0.8C36.1,16.6,36.1,15.5,36,14.4z M37.2,8.9c0.1,0,0.2,0,0.2,0c0.7,0,2.3,0.1,2.8,0.1
		c-0.1-1.8-0.3-3.5-0.5-5c-0.3-1.7-0.8-2.6-2.1-2.5c-0.2,0-0.3,0-0.4,0c0,0.1-0.1,0.2-0.1,0.3c-0.1,0.5-0.1,1.1-0.1,2.2
		c0,0.6,0,0.9,0,0.9C37.1,6.1,37.2,7.4,37.2,8.9z"/>
</g>
</svg>
